PathFileType	4	(X/Y/Z)	/Users/niels/Desktop/University/Third Semester/Perception and Action/Exam/Gymnastics Motion Tracking/Code for Gym Tracking/Scripts/Analyzed Data/Start Salto/st_salto_bad_id11_3_Sports2D/st_salto_bad_id11_3_Sports2D_px_person00.trc
DataRate	CameraRate	NumFrames	NumMarkers	Units	OrigDataRate	OrigDataStartFrame	OrigNumFrames
29.8051948051948	29.8051948051948	7	22	m	29.8051948051948	77	154
Frame#	Time	Hip			RHip			RKnee			RAnkle			RBigToe			RSmallToe			RHeel			LHip			LKnee			LAnkle			LBigToe			LSmallToe			LHeel			Neck			Head			Nose			RShoulder			RElbow			RWrist			LShoulder			LElbow			LWrist		
		X1	Y1	Z1	X2	Y2	Z2	X3	Y3	Z3	X4	Y4	Z4	X5	Y5	Z5	X6	Y6	Z6	X7	Y7	Z7	X8	Y8	Z8	X9	Y9	Z9	X10	Y10	Z10	X11	Y11	Z11	X12	Y12	Z12	X13	Y13	Z13	X14	Y14	Z14	X15	Y15	Z15	X16	Y16	Z16	X17	Y17	Z17	X18	Y18	Z18	X19	Y19	Z19	X20	Y20	Z20	X21	Y21	Z21	X22	Y22	Z22
77	2.583442265795207	0.883496779018292	-0.34062665772667744	0.0	0.8770264957052524	-0.34162077666953006	0.0	0.794123430873101	-0.45108576561232605	0.0	0.7442301991559848	-0.3348843281418563	0.0	0.6868475854539813	-0.3419497645527354	0.0	0.6968372459709863	-0.3340686641148203	0.0	0.7426796182588941	-0.3178753660071148	0.0	0.8823286881349446	-0.3451040639693157	0.0	0.8002642767313162	-0.4467775462229706	0.0	0.7430049610316142	-0.3505257242815242	0.0	0.6872211944473035	-0.3467657049177348	0.0	0.6882039235222016	-0.3514128275886969	0.0	0.7471753924528661	-0.3205109632946121	0.0	0.9128316252876223	-0.501633357985736	0.0	0.8676631198384879	-0.5595454040891624	0.0	0.8597149643348039	-0.5214240499449733	0.0	0.9238709402163188	-0.4872134829399995	0.0	0.8365423281413612	-0.4763829916510988	0.0	0.8328213660492706	-0.5548081288916414	0.0	0.9226869724493532	-0.49183841539188583	0.0	0.836729272994144	-0.47466726202409343	0.0	0.843016318614622	-0.5329246761876478	0.0
78	2.6169934640522876	0.8953537605728292	-0.34193254720475486	0.0	0.8883378614449109	-0.3429899655089929	0.0	0.7993991233535654	-0.44840939799892143	0.0	0.7571930250814674	-0.32929731267356055	0.0	0.701221248797298	-0.33586226861381485	0.0	0.7113814739163937	-0.32677430218182113	0.0	0.7567033917863996	-0.3128131320073836	0.0	0.8930203763007469	-0.3463564910040823	0.0	0.8050502803617724	-0.44439649185652347	0.0	0.7541207080500368	-0.3450419899877848	0.0	0.6988490817897792	-0.3397137713008197	0.0	0.6989721202592203	-0.34207021129193504	0.0	0.7597788020369091	-0.3131391028015133	0.0	0.9151080345979545	-0.5067199940266525	0.0	0.8646315462939589	-0.5570539059020175	0.0	0.8605114396287596	-0.521522536640632	0.0	0.9271301733017978	-0.4934428080636536	0.0	0.8402908381438203	-0.47238143215739237	0.0	0.8336004521534073	-0.5506773567678925	0.0	0.9243031216479635	-0.4962186701674456	0.0	0.8405936179196737	-0.47039891582522386	0.0	0.8422325249426176	-0.5314625247013188	0.0
79	2.6505446623093682	0.9075640358168076	-0.34411868594731515	0.0	0.900060732701597	-0.34511149289007925	0.0	0.8051573981127763	-0.44570982995482245	0.0	0.770957723038817	-0.324711500474915	0.0	0.7173774086776727	-0.33043321775852347	0.0	0.7278786358156824	-0.31978124323759133	0.0	0.7716077342363578	-0.30822805275426435	0.0	0.9037466149659807	-0.34872379428757083	0.0	0.8102056126570761	-0.4419199348462028	0.0	0.7665089615988844	-0.3390613173729596	0.0	0.7119351391824383	-0.33186862324891525	0.0	0.7117794975604651	-0.33209773920346936	0.0	0.7729772584202581	-0.3053567139371742	0.0	0.916638945144483	-0.5117374620492697	0.0	0.8626835438314943	-0.5543269581337308	0.0	0.8617936576004662	-0.5207628737591671	0.0	0.9306195958440081	-0.49996093546050896	0.0	0.8448814274443346	-0.4682697285595124	0.0	0.8351244613122506	-0.5462970891450581	0.0	0.9254494383461044	-0.5005849399165575	0.0	0.8455370552459791	-0.4657526651531026	0.0	0.8423213676914861	-0.5296107286638458	0.0
80	2.684095860566449	0.9197094823493902	-0.34722465769085886	0.0	0.9119085420659331	-0.3481454846089029	0.0	0.8112272425456722	-0.44286893521297566	0.0	0.7852453781784783	-0.32090194345133066	0.0	0.7343120583079185	-0.32519795114539035	0.0	0.7452931896362153	-0.31292998869801886	0.0	0.787170536025448	-0.3040163009305568	0.0	0.9144133866388606	-0.3521840271942542	0.0	0.8155001169544022	-0.4392313826631874	0.0	0.7798846197312648	-0.33277857785247	0.0	0.7260683376606272	-0.3238355953459273	0.0	0.7260103558037699	-0.32242280227756737	0.0	0.7867572525502432	-0.2982182068440031	0.0	0.9173873254042373	-0.5162316397388335	0.0	0.8620373653465553	-0.5516234295578978	0.0	0.8638111711454043	-0.5194976581431986	0.0	0.9338753986747724	-0.5062290178893727	0.0	0.8502991521330382	-0.464325484329605	0.0	0.8372620705619338	-0.541795172896904	0.0	0.9262194117803153	-0.504431646531752	0.0	0.8517494856131098	-0.46101926433792456	0.0	0.8433658775737369	-0.5275164270954801	0.0
81	2.7176470588235295	0.9314973405839554	-0.35114347440519217	0.0	0.9236432692426538	-0.35209162706006447	0.0	0.8173616250441113	-0.4398646049640467	0.0	0.7997582376582262	-0.317669148057454	0.0	0.7509455536324013	-0.3197220336581	0.0	0.762471699100303	-0.30629763592376413	0.0	0.8030887341351904	-0.3002341931697052	0.0	0.92500834064609	-0.3564470605778396	0.0	0.8206757529328131	-0.436259344250006	0.0	0.7938229388899151	-0.3265390987947104	0.0	0.7407507525059812	-0.3161809536779564	0.0	0.7409416559004931	-0.3138370277717127	0.0	0.8009963477228019	-0.29251916578399434	0.0	0.9175377859980908	-0.5199352652683221	0.0	0.8624106769332183	-0.5493335728810171	0.0	0.8665725130030425	-0.5182247006520206	0.0	0.936605447354882	-0.5118083955129671	0.0	0.8564904609091963	-0.4606985851847276	0.0	0.8397856782634026	-0.5372863778748284	0.0	0.9268218426432007	-0.5074748940902138	0.0	0.8592638918731792	-0.45651978857494574	0.0	0.845168619900138	-0.5253433583051862	0.0
82	2.75119825708061	0.9428928358325104	-0.3557049435226396	0.0	0.9351618965773124	-0.3567508878814965	0.0	0.8234102205737706	-0.4367792015274803	0.0	0.8143489097727841	-0.3149556435229975	0.0	0.766675537210202	-0.31387321889559494	0.0	0.7787485826574025	-0.30023026159805505	0.0	0.8191058085277404	-0.297060984152845	0.0	0.9356429483600068	-0.3611133326939254	0.0	0.8257608094778462	-0.43308507664892876	0.0	0.8080046890945247	-0.3207283711211908	0.0	0.7556785083322267	-0.3091990295058538	0.0	0.7561284634995717	-0.30665993865995955	0.0	0.8155867922497504	-0.2884573251750812	0.0	0.9174985706515963	-0.5228881777320195	0.0	0.8629679117350887	-0.5477919234354703	0.0	0.8697846677967485	-0.5173731329116641	0.0	0.9387775244659889	-0.5165242081812481	0.0	0.863384148727907	-0.4573903955997154	0.0	0.842470275781255	-0.532811134742543	0.0	0.9275719477461719	-0.5099699745675286	0.0	0.8677205482642336	-0.4525589114155187	0.0	0.8474832825872952	-0.5230199104804389	0.0
83	2.784749455337691	0.9539734992044342	-0.3607767815949611	0.0	0.9464109116078038	-0.3618004026565767	0.0	0.8293750464513377	-0.433663773145678	0.0	0.8289570179798873	-0.3127163854932426	0.0	0.7812763213276933	-0.30801975173331925	0.0	0.7938729961312183	-0.29514427149948014	0.0	0.8349813904770544	-0.29467675882698074	0.0	0.946385540102418	-0.3658770159451304	0.0	0.8311128642576386	-0.43003851715537905	0.0	0.8221400625517212	-0.31570402824015964	0.0	0.7706881363630076	-0.30307562297211066	0.0	0.7713098758605786	-0.30090709971009477	0.0	0.8304082275350333	-0.2859045540854539	0.0	0.9177434217607173	-0.5253233051549551	0.0	0.8629534746539563	-0.5471915767309431	0.0	0.8730399563730642	-0.5172190889865368	0.0	0.9404693819078335	-0.5204453325113216	0.0	0.8709068727241228	-0.4543798982614598	0.0	0.8451842236160856	-0.5283698426746645	0.0	0.928787620825436	-0.51260710725317	0.0	0.8762294090922093	-0.44938760364372093	0.0	0.8501331151484361	-0.5203367311163891	0.0
